# xmcd
#
# Track frame offsets: 
#        150
#        12248
#        26192
#        41463
#        55584
#        69917
#        82052
#        95506
#        107448
#        119014
#        132788
#        145260
#        164945
#        176369
#        203465
#
# Disc length: 2884 seconds
#
# Revision: 0
# Processed by: cddbd v1.5.2PL0 Copyright (c) Steve Scherf et al.
# Submitted via: ExactAudioCopyFreeDBPlugin 1.0
#
DISCID=c90b420f
DTITLE=Various Artist - The Essential Blues [CD1]
DYEAR=2012
DGENRE=Blues
TTITLE0=Robert Johnson - Hell Hound On My Trail
TTITLE1=Blind Boy Fuller - Rag Mama Rag
TTITLE2=Blind Willie Johnson - Dark Was The Night Cold Was The Ground
TTITLE3=Sonny Boy Williamson - Blue Bird Blues
TTITLE4=Huddie 'Leadbelly' Ledbetter - Red Cross Store Blues
TTITLE5=Brownie McGhee - Key To The Highway 70 No.1
TTITLE6=Memphis Slim - Whiskey Store Blues
TTITLE7=Big Joe Williams - Don't You Leave Me Here
TTITLE8=Little Richard - Why Did You Leave Me?
TTITLE9=Chuck Willis - Don't Deceive Me
TTITLE10=Aretha Franklin - Evil Gal Blues
TTITLE11=Son House - Death Letter Blues
TTITLE12=Screamin' Jay Hawkins - I Put A Spell On You
TTITLE13=Blood, Sweat and Tears - I Love You More Than You Will Ever Kno
TTITLE13=w
TTITLE14=Van Morrison - Midnight Special
EXTD=
EXTT0=
EXTT1=
EXTT2=
EXTT3=
EXTT4=
EXTT5=
EXTT6=
EXTT7=
EXTT8=
EXTT9=
EXTT10=
EXTT11=
EXTT12=
EXTT13=
EXTT14=
PLAYORDER=
